<svg xmlns="http://www.w3.org/2000/svg" width="664" height="665" fill="none"><path fill="url(#a)" d="M663.459 504.085V333.877h.54v-1.879h-.54V161.791a160.78 160.78 0 0 0-45.296-111.825v-3.089h45.296v-1.891h-43.984L661.709 2.52l-1.287-1.287-42.221 42.465V2.148h-1.878v42.838h-3.192A158.936 158.936 0 0 0 503.404.938H160.042A158.935 158.935 0 0 0 50.366 44.986h-3.204V2.148h-1.866V43.66L3.076 1.195 1.788 2.482l42.22 42.465H2.677v1.879h42.62v3.14A160.737 160.737 0 0 0 0 161.79v342.294a160.735 160.735 0 0 0 45.296 111.824v3.14H2.676v1.879h41.295L1.75 663.393l1.286 1.287 42.22-42.465v41.513h1.866v-42.839h3.205a158.933 158.933 0 0 0 109.714 44.048h343.362a158.936 158.936 0 0 0 109.689-44.048h3.191v42.839h1.879v-41.513l42.22 42.465 1.287-1.287-42.233-42.465h44.562v-1.879h-45.836v-3.14a160.854 160.854 0 0 0 45.296-111.824Zm-1.879 0a158.806 158.806 0 0 1-43.417 109.096V451.904h42.748v-1.866h-42.748V333.877h43.417v170.208Zm-212.055-54.047-1.287-1.287a157.814 157.814 0 0 0 6.215-6.691v7.978h-4.928Zm4.928 1.879v3.076l-3.062-3.076h3.062Zm-244.38-1.879v-6.756a171.699 171.699 0 0 0 5.148 5.469l-1.287 1.287h-3.861Zm1.995 1.879-1.995 1.982v-1.995l1.995.013Zm1.866-236.08 1.287 1.287a186.9 186.9 0 0 0-5.148 5.469v-6.756h3.861Zm-3.861-1.879v-1.981l1.995 1.994-1.995-.013Zm244.38 1.879v7.978a157.814 157.814 0 0 0-6.215-6.691l1.287-1.287h4.928Zm-3.062-1.879 3.062-3.075v3.075h-3.062Zm3.062 118.027h-4.401a118.953 118.953 0 0 0-33.997-82.511l30.883-31.012a185.953 185.953 0 0 1 7.541 8.197l-.026 105.326Zm1.866-103.1a162.584 162.584 0 0 1 37.318 103.1h-37.318v-103.1Zm-41.59 21.876a116.946 116.946 0 0 1 33.458 81.173H333.981l80.748-81.173Zm-82.06 79.783V215.837a115.71 115.71 0 0 1 80.735 33.612l-80.735 81.095Zm-1.879 0-80.748-81.185a115.813 115.813 0 0 1 80.748-33.522v114.707Zm-1.287 1.287H215.272a117.016 117.016 0 0 1 33.457-81.173l80.774 81.173Zm0 1.879-80.748 81.172a117.013 117.013 0 0 1-33.457-81.172h114.205Zm1.287 1.287v115.041a115.724 115.724 0 0 1-80.748-33.624l80.748-81.417Zm1.879 0 80.735 81.172a115.668 115.668 0 0 1-80.735 33.869V334.997Zm1.287-1.287h114.192a116.945 116.945 0 0 1-33.457 81.172l-80.735-81.172Zm111.631-116.586-30.883 31.025a117.801 117.801 0 0 0-62.115-32.312h91.686l1.312 1.287Zm-112.918-3.166v-43.842a160.948 160.948 0 0 1 109.637 43.855l-109.637-.013Zm-1.879 0H221.153a160.854 160.854 0 0 1 109.637-43.855v43.855Zm-19.933 1.879a117.889 117.889 0 0 0-62.14 32.312l-30.884-31.025 1.287-1.287h91.737Zm-94.311 2.574 30.884 31.012a118.839 118.839 0 0 0-33.998 82.511h-3.333V225.437a149.613 149.613 0 0 1 6.447-6.962v-.064Zm-8.338 113.523H169.77a162.59 162.59 0 0 1 38.438-104.374v104.374Zm0 1.879v104.374a162.59 162.59 0 0 1-38.438-104.374h38.438Zm1.865 0h3.333a118.787 118.787 0 0 0 33.998 82.498l-30.884 31.025a142.548 142.548 0 0 1-6.434-6.962l-.013-106.561Zm7.799 114.938 30.883-31.025a117.884 117.884 0 0 0 62.102 32.312h-91.673l-1.312-1.287Zm112.918 3.166v43.855a160.854 160.854 0 0 1-109.637-43.855H330.79Zm1.879 0h109.637a160.948 160.948 0 0 1-109.637 43.855v-43.855Zm19.92-1.879a117.793 117.793 0 0 0 62.14-32.312l30.884 31.025-1.287 1.287h-91.737Zm94.324-2.573-30.884-31.026a118.885 118.885 0 0 0 33.998-82.498h4.401v105.327a192.042 192.042 0 0 1-7.515 8.197Zm9.406-113.524h37.318a162.584 162.584 0 0 1-37.318 103.1v-103.1Zm39.235-1.878a164.467 164.467 0 0 0-39.235-106.009v-10.217h98.957a253.282 253.282 0 0 1 28.477 116.148l-88.199.078Zm-39.235-118.028v-4.967l54.278-54.548a254.08 254.08 0 0 1 43.688 59.515h-97.966Zm0-7.618V112.66a252.974 252.974 0 0 1 52.953 40.457l-52.953 53.3Zm-1.866 1.879-5.7 5.739h-3.719a162.82 162.82 0 0 0-112.365-45.81V79.588a249.713 249.713 0 0 1 121.784 32.017v96.691ZM330.79 168.225a162.796 162.796 0 0 0-112.365 45.733h-3.719l-4.633-4.658v-98.313A249.76 249.76 0 0 1 330.79 79.576v88.649Zm-122.582 39.209-54.047-54.317a253.242 253.242 0 0 1 54.047-41.062v95.379Zm0 2.664v3.86h-99.086a253.739 253.739 0 0 1 43.688-59.515l55.398 55.655Zm0 5.752v8.879a164.55 164.55 0 0 0-40.317 107.269H79.706a253.286 253.286 0 0 1 28.477-116.161l100.025.013Zm-40.317 118.027a164.547 164.547 0 0 0 40.317 107.269v8.892H108.183A253.285 253.285 0 0 1 79.706 333.89l88.185-.013Zm40.317 118.027v3.861l-55.334 55.629a253.74 253.74 0 0 1-43.687-59.516l99.021.026Zm0 6.537v95.379a253.242 253.242 0 0 1-54.047-41.062l54.047-54.317Zm1.865-1.879 4.633-4.658h3.719a162.798 162.798 0 0 0 112.365 45.747v88.662a249.92 249.92 0 0 1-120.717-31.425v-98.326Zm122.596 41.089a162.821 162.821 0 0 0 112.365-45.734h3.719l5.7 5.739v96.615A249.877 249.877 0 0 1 332.669 586.3v-88.649Zm123.65-38.116 52.953 53.236a253.736 253.736 0 0 1-52.953 40.457v-93.693Zm0-2.651v-4.967h97.966a254.04 254.04 0 0 1-43.688 59.515l-54.278-54.548Zm0-6.846v-10.14a164.465 164.465 0 0 0 39.235-106.008h88.199a253.282 253.282 0 0 1-28.477 116.148h-98.957Zm129.3-116.148h30.665v116.148h-58.898a255.164 255.164 0 0 0 28.233-116.161v.013Zm0-1.879a255.169 255.169 0 0 0-28.233-116.174h58.898v116.148l-30.665.026Zm-29.224-118.027a256.349 256.349 0 0 0-44.472-60.854L615.1 49.451l.09.077c.386.4.772.824 1.158 1.287v163.156l-59.953.013Zm57.29-165.833L510.597 151.792a255.058 255.058 0 0 0-54.278-41.294V46.865h156.027l1.339 1.286Zm-159.232 61.305a251.758 251.758 0 0 0-121.784-31.76V46.814h121.784v62.643Zm-121.784-64.47V2.816h121.784v42.17H332.669Zm-1.879 0H210.073V2.816H330.79v42.17Zm0 1.879v30.883a251.748 251.748 0 0 0-120.717 31.154V46.865H330.79Zm-122.582 63.054a254.6 254.6 0 0 0-55.334 41.886L49.787 48.165l1.287-1.288h157.134v63.042ZM48.333 49.529l.077-.078 103.126 103.666a256.067 256.067 0 0 0-44.485 60.854H47.162V50.764c.45-.412.772-.837 1.171-1.236Zm57.74 166.308A255.17 255.17 0 0 0 77.84 331.985H47.162V215.837h58.911ZM77.84 333.864a255.17 255.17 0 0 0 28.233 116.174H47.162V333.877l30.678-.013Zm29.211 118.027a256.067 256.067 0 0 0 44.485 60.854L48.41 616.424l-.077-.077a23.43 23.43 0 0 1-1.171-1.287V451.904l59.889-.013ZM49.774 617.724l103.087-103.641a255.056 255.056 0 0 0 55.334 41.899v63.054H51.113l-1.339-1.312Zm160.299-60.699a251.746 251.746 0 0 0 120.717 31.153v30.884H210.073v-62.037Zm120.717 63.864v42.169H210.073v-42.169H330.79Zm1.879 0h121.784v42.169H332.669v-42.169Zm0-1.878v-30.884a251.758 251.758 0 0 0 121.784-31.759v62.591l-121.784.052Zm123.65-63.634a255.025 255.025 0 0 0 54.278-41.294l103.088 103.641-1.287 1.287H456.319v-63.634Zm158.781 60.97-.09.077-103.113-103.666a256.353 256.353 0 0 0 44.473-60.854h59.888v163.208l-1.158 1.235Zm46.48-454.556v170.207h-43.417V215.837h42.748v-1.879h-42.748V52.732a158.808 158.808 0 0 1 43.417 109.059ZM610.39 44.947H456.319V2.817h47.085A157.094 157.094 0 0 1 610.39 44.986v-.039ZM160.003 2.778h48.205v42.17H53.068A157.082 157.082 0 0 1 160.043 2.816l-.039-.039ZM1.866 504.085V161.791a158.82 158.82 0 0 1 43.43-109.097v161.238H2.574v1.905h42.722v116.148H2.42v1.879h42.877v116.174H2.574v1.879h42.722v161.239a158.821 158.821 0 0 1-43.43-109.071Zm51.203 116.843h155.139v42.169h-48.166a157.08 157.08 0 0 1-106.974-42.208v.039Zm450.387 42.169h-47.137v-42.208H610.39a157.114 157.114 0 0 1-106.986 42.169l.052.039Z" opacity=".2"/><mask id="c" width="592" height="665" x="-13" y="0" maskUnits="userSpaceOnUse" style="mask-type:alpha"><path fill="url(#b)" d="M-12.797 0h591.785v664.938H-12.797z"/></mask><g mask="url(#c)"><g filter="url(#d)"><path fill="#fff" fill-opacity=".1" d="M82.864 584.71c0-5.128 0-7.691 1.014-9.643a9.004 9.004 0 0 1 3.84-3.839c1.95-1.014 4.514-1.014 9.642-1.014h49.788c5.128 0 7.691 0 9.643 1.014a9.004 9.004 0 0 1 3.839 3.839c1.014 1.952 1.014 4.515 1.014 9.643v49.789c0 5.127 0 7.691-1.014 9.642a9.004 9.004 0 0 1-3.839 3.839c-1.952 1.014-4.515 1.014-9.643 1.014H97.36c-5.128 0-7.691 0-9.643-1.014a9.004 9.004 0 0 1-3.84-3.839c-1.013-1.951-1.013-4.515-1.013-9.642V584.71Z"/><path stroke="#fff" stroke-opacity=".2" stroke-width=".938" d="M147.148 569.745H97.337c-2.544 0-4.483 0-6.028.129-1.556.129-2.754.39-3.808.938a9.473 9.473 0 0 0-4.04 4.039c-.547 1.054-.808 2.253-.937 3.808-.129 1.545-.129 3.484-.129 6.028v49.834c0 2.545 0 4.483.129 6.029.129 1.555.39 2.753.938 3.807a9.468 9.468 0 0 0 4.04 4.039c1.053.548 2.251.809 3.807.939 1.545.128 3.483.128 6.028.128h49.834c2.545 0 4.483 0 6.028-.128 1.556-.13 2.754-.391 3.808-.939a9.464 9.464 0 0 0 4.039-4.039c.548-1.054.809-2.252.939-3.807.128-1.546.128-3.484.128-6.029v-49.834c0-2.544 0-4.483-.128-6.028-.13-1.555-.391-2.754-.939-3.808a9.47 9.47 0 0 0-4.039-4.039c-1.054-.548-2.252-.809-3.808-.938-1.545-.129-3.483-.129-6.028-.129h-.023Z"/></g><g clip-path="url(#e)"><path fill="#fff" d="M98.455 582.407h47.596l-4.329 48.872-19.521 5.523-19.412-5.525-4.334-48.87Zm38.734 10.002-29.872-.007.483 5.943 22.948.004-.578 6.156h-15.05l.544 5.832h14.012l-.83 7.984-6.595 1.823-6.7-1.836-.426-4.783h-5.915l.657 8.738 12.386 3.86 12.178-3.468 2.758-30.244v-.002Z"/></g><g filter="url(#f)"><path fill="#fff" fill-opacity=".1" d="M359.185 66.243h-49.706c-7.77 0-14.068 6.299-14.068 14.068v49.706c0 7.77 6.298 14.068 14.068 14.068h49.706c7.77 0 14.068-6.298 14.068-14.068V80.311c0-7.77-6.298-14.068-14.068-14.068Z"/><path stroke="#fff" stroke-opacity=".2" stroke-width=".938" d="M359.185 65.774h-49.706c-8.028 0-14.537 6.508-14.537 14.537v49.706c0 8.029 6.509 14.537 14.537 14.537h49.706c8.029 0 14.537-6.508 14.537-14.537V80.311c0-8.028-6.508-14.537-14.537-14.537Z"/></g><path fill="#fff" d="M347.7 127.057c1.568 2.56 3.608 4.442 7.216 4.442 3.031 0 4.967-1.515 4.967-3.608 0-2.508-1.989-3.397-5.325-4.856l-1.829-.784c-5.278-2.249-8.785-5.066-8.785-11.022 0-5.486 4.18-9.662 10.713-9.662 4.65 0 7.994 1.619 10.403 5.857l-5.696 3.657c-1.254-2.249-2.607-3.135-4.707-3.135-2.143 0-3.501 1.359-3.501 3.135 0 2.194 1.359 3.083 4.498 4.442l1.828.783c6.215 2.665 9.724 5.382 9.724 11.491 0 6.586-5.173 10.194-12.121 10.194-6.793 0-11.182-3.238-13.329-7.481l5.944-3.453Zm-25.839.634c1.149 2.039 2.194 3.762 4.707 3.762 2.403 0 3.919-.94 3.919-4.596v-24.872h7.315v24.971c0 7.574-4.441 11.021-10.923 11.021-5.856 0-9.248-3.031-10.973-6.681l5.955-3.605Z"/><g filter="url(#g)"><rect width="78.78" height="78.78" x="131.038" y="25.666" fill="#fff" fill-opacity=".1" rx="15.006"/><rect width="79.718" height="79.718" x="130.569" y="25.198" stroke="#fff" stroke-opacity=".2" stroke-width=".938" rx="15.475"/></g><path stroke="#fff" stroke-width="2.739" d="M170.251 75.9c16.572.27 30.086-4.365 30.183-10.352.098-5.986-13.258-11.059-29.83-11.328-16.573-.27-30.086 4.364-30.184 10.351-.097 5.987 13.258 11.059 29.831 11.329Z"/><path stroke="#fff" stroke-width="2.739" d="M160.416 70.315c8.065 13.714 19.085 22.477 24.614 19.573 5.528-2.905 3.472-16.376-4.593-30.09-8.065-13.714-19.085-22.477-24.614-19.573-5.528 2.904-3.472 16.376 4.593 30.09Z"/><path stroke="#fff" stroke-width="2.739" d="M160.594 59.474c-8.507 13.444-11.001 26.842-5.57 29.925 5.431 3.082 16.731-5.317 25.238-18.761 8.507-13.445 11.001-26.842 5.57-29.925-5.431-3.082-16.731 5.317-25.238 18.761Z"/><g filter="url(#h)"><path fill="#fff" fill-opacity=".2" fill-rule="evenodd" d="M181.769 65.315a72.128 72.128 0 0 0-5.551-9.44 80.841 80.841 0 0 0-5.705-.293 80.9 80.9 0 0 0-5.711.107 71.628 71.628 0 0 0-3.107 4.523 71.349 71.349 0 0 0-2.749 4.731 70.948 70.948 0 0 0 2.593 4.818 71.775 71.775 0 0 0 2.963 4.629c1.84.16 3.746.26 5.7.291a80.79 80.79 0 0 0 5.707-.106 71.701 71.701 0 0 0 3.112-4.53 70.9 70.9 0 0 0 2.748-4.73Z" clip-rule="evenodd"/></g><path fill="#fff" d="M170.365 70.348c3.089.05 5.631-2.278 5.679-5.2.047-2.922-2.418-5.332-5.506-5.382-3.089-.05-5.631 2.278-5.679 5.2-.047 2.922 2.418 5.332 5.506 5.382Z"/><g filter="url(#i)"><rect width="78.78" height="78.78" x="415.767" y="332.938" fill="#fff" fill-opacity=".1" rx="14.068" transform="rotate(.656 415.767 332.938)"/><rect width="79.718" height="79.718" x="415.303" y="332.464" stroke="#fff" stroke-opacity=".2" stroke-width=".938" rx="14.537" transform="rotate(.656 415.303 332.464)"/></g><path fill="#fff" d="M441.663 367.843c-.009.738.064 1.338.199 1.779.155.441.349.922.622 1.444a.875.875 0 0 1 .135.461c-.002.2-.125.398-.386.595l-1.268.824a.96.96 0 0 1-.521.173c-.199-.002-.398-.104-.595-.286a6.23 6.23 0 0 1-.708-.946 15.44 15.44 0 0 1-.605-1.185c-1.578 1.818-3.545 2.714-5.901 2.687-1.676-.019-3.008-.513-3.976-1.483-.967-.969-1.451-2.252-1.433-3.849.02-1.697.634-3.067 1.864-4.092 1.229-1.024 2.852-1.524 4.908-1.501.679.008 1.377.076 2.114.184.738.109 1.495.277 2.291.466l.017-1.457c.017-1.517-.29-2.579-.902-3.205-.632-.626-1.706-.938-3.243-.955a9.093 9.093 0 0 0-2.159.234c-.741.172-1.462.383-2.164.654a5.724 5.724 0 0 1-.701.252c-.14.038-.241.057-.32.056-.28-.003-.417-.204-.412-.624l.011-.978c.003-.319.046-.558.147-.697.102-.138.283-.276.564-.412.703-.352 1.545-.642 2.526-.87.981-.248 2.02-.356 3.118-.344 2.375.028 4.106.587 5.211 1.677 1.086 1.091 1.626 2.734 1.601 4.93l-.074 6.467.04.001Zm-8.139 2.941c.658.008 1.338-.104 2.06-.336.721-.231 1.365-.663 1.911-1.255a3.17 3.17 0 0 0 .693-1.27 7.194 7.194 0 0 0 .22-1.735l.009-.838a16.688 16.688 0 0 0-1.832-.36 14.884 14.884 0 0 0-1.875-.142c-1.338-.015-2.319.233-2.984.765-.665.531-.993 1.286-1.004 2.284-.011.938.221 1.64.714 2.125.474.504 1.169.752 2.088.762Zm16.004 2.34c-.359-.005-.598-.067-.756-.209-.158-.121-.295-.402-.41-.783l-4.515-15.484c-.115-.401-.172-.661-.17-.801.003-.319.165-.497.485-.493l1.956.022c.379.005.638.067.776.209.158.121.275.402.39.783l3.203 13.253 3.265-13.179c.104-.398.227-.656.388-.774s.442-.195.801-.191l1.597.019c.379.004.638.067.796.208.158.122.295.403.37.783l3.001 13.411 3.607-13.335c.124-.398.267-.656.408-.774.161-.118.421-.195.781-.191l1.856.022c.319.003.497.165.493.504-.001.1-.022.2-.043.319-.022.12-.063.279-.146.498l-4.987 15.375c-.125.398-.267.656-.428.774-.161.117-.422.194-.761.19l-1.717-.019c-.379-.005-.638-.067-.796-.209-.158-.141-.295-.403-.37-.803l-2.947-12.91-3.221 12.82c-.104.398-.227.656-.388.794-.162.138-.442.194-.801.19l-1.717-.019Zm25.645.832a13.212 13.212 0 0 1-3.07-.394c-.996-.251-1.771-.52-2.287-.825-.317-.183-.534-.385-.612-.566a1.41 1.41 0 0 1-.114-.56l.012-1.018c.005-.419.167-.617.466-.614.12.002.24.023.359.064s.298.123.497.205c.675.308 1.411.556 2.187.724.797.169 1.575.258 2.373.267 1.258.014 2.238-.194 2.922-.625.684-.432 1.05-1.066 1.06-1.885.006-.559-.168-1.02-.523-1.403-.355-.384-1.03-.731-2.004-1.061l-2.885-.932c-1.452-.476-2.522-1.167-3.17-2.072-.649-.886-.977-1.868-.965-2.906.01-.839.198-1.575.564-2.21a5.128 5.128 0 0 1 1.456-1.62 6.334 6.334 0 0 1 2.088-1.014c.801-.231 1.641-.321 2.519-.311.439.005.898.03 1.337.095.458.065.876.15 1.295.235.398.104.776.208 1.134.332.358.124.636.247.834.369.278.163.476.325.593.506.118.161.176.381.172.661l-.01.938c-.005.419-.167.637-.467.633-.16-.002-.418-.084-.756-.248-1.131-.532-2.406-.806-3.823-.822-1.138-.013-2.038.156-2.662.528-.623.372-.949.948-.958 1.766-.007.559.188 1.04.582 1.424.395.384 1.13.772 2.184 1.123l2.824.931c1.432.476 2.463 1.126 3.072 1.952.609.825.898 1.767.886 2.805-.01.858-.198 1.635-.545 2.309a5.357 5.357 0 0 1-1.478 1.74c-.624.492-1.367.843-2.228 1.093a9.488 9.488 0 0 1-2.859.386ZM478.835 383.701c-6.623 4.775-16.194 7.241-24.398 7.147-11.498-.132-21.81-4.502-29.554-11.658-.612-.566-.044-1.319.689-.871 8.408 5.008 18.813 8.101 29.613 8.225 7.286.084 15.308-1.342 22.709-4.371 1.104-.487 2.028.741.941 1.528Zm2.77-3.083c-.826-1.088-5.543-.583-7.682-.348-.64.073-.733-.487-.149-.9 3.783-2.592 9.942-1.762 10.65-.876.709.907-.28 7.064-3.827 9.978-.544.453-1.061.208-.814-.388.821-1.967 2.648-6.399 1.822-7.466Z"/><g filter="url(#j)"><rect width="78.78" height="78.78" x="210.412" y="166" fill="#fff" fill-opacity=".1" rx="14.068"/><rect width="79.718" height="79.718" x="209.943" y="165.531" stroke="#fff" stroke-opacity=".2" stroke-width=".938" rx="14.537"/></g><path fill="#fff" d="m229.67 214.575 5.914-38.045a1.36 1.36 0 0 1 1.114-1.133 1.354 1.354 0 0 1 1.425.703l6.36 11.932-14.813 26.543Zm42.004 9.232-5.632-35.012a1.365 1.365 0 0 0-.924-1.067 1.36 1.36 0 0 0-1.372.329l-35.515 35.75 19.651 11.074a4.045 4.045 0 0 0 3.969 0l19.823-11.074Zm-15.969-30.553-4.552-8.708a1.356 1.356 0 0 0-2.401 0l-19.983 35.809 26.936-27.101Z"/><g filter="url(#k)"><rect width="78.78" height="78.78" x="360.62" y="216.795" fill="#fff" fill-opacity=".1" rx="14.068"/><rect width="79.718" height="79.718" x="360.151" y="216.326" stroke="#fff" stroke-opacity=".2" stroke-width=".938" rx="14.537"/></g><g clip-path="url(#l)"><path fill="#fff" d="M369.959 276.345c.105 1.326.57 2.66 1.787 4.45 1.447 2.126 3.935 3.297 5.757 1.429 1.228-1.26 14.538-24.421 20.947-33.197a1.903 1.903 0 0 1 3.121.006c6.376 8.8 19.596 32.012 20.819 33.277 1.815 1.875 4.308.714 5.762-1.407 1.43-2.085 1.828-3.547 1.831-5.113.002-1.065-20.582-39.549-22.657-42.755-1.994-3.08-2.603-3.751-5.987-3.868l-2.581-.005c-3.384.104-3.995.771-6.005 3.845-2.041 3.13-21.962 40.023-22.792 42.553l-.002.785Z"/></g><g filter="url(#m)"><path fill="#fff" fill-opacity=".1" d="M322.855 303.864h-62.638a7.603 7.603 0 0 0-7.602 7.602v62.638a7.602 7.602 0 0 0 7.602 7.602h62.638a7.601 7.601 0 0 0 7.602-7.602v-62.638a7.602 7.602 0 0 0-7.602-7.602Z"/><path stroke="#fff" stroke-opacity=".2" stroke-width=".938" d="M322.855 303.395h-62.638a8.072 8.072 0 0 0-8.071 8.071v62.638a8.071 8.071 0 0 0 8.071 8.071h62.638a8.07 8.07 0 0 0 8.071-8.071v-62.638a8.071 8.071 0 0 0-8.071-8.071Z"/></g><path fill="#fff" fill-rule="evenodd" d="M300.517 365.852v7.602c1.231.639 2.736 1.11 4.409 1.429 1.672.319 3.496.471 5.321.471 1.824 0 3.497-.167 5.169-.516a13.122 13.122 0 0 0 4.257-1.673c1.231-.806 2.281-1.824 2.889-3.193.608-1.368 1.079-2.888 1.079-4.865 0-1.383-.213-2.584-.623-3.649-.411-1.064-1.004-1.976-1.825-2.736a12.06 12.06 0 0 0-2.736-2.129 34.132 34.132 0 0 0-3.649-1.824c-1.004-.411-1.825-.806-2.737-1.201-.79-.395-1.474-.791-1.976-1.186-.563-.411-.988-.836-1.292-1.277a2.663 2.663 0 0 1-.457-1.52c0-.517.136-.989.411-1.414.275-.426.654-.776 1.14-1.08.487-.304 1.095-.532 1.825-.699.714-.167 1.505-.243 2.432-.243.639 0 1.308.047 1.977.142a16.44 16.44 0 0 1 2.128.441c.715.198 1.414.441 2.129.745.669.304 1.292.654 1.824 1.049v-7.145a18.717 18.717 0 0 0-3.801-.988c-1.368-.213-2.889-.32-4.713-.32-1.824 0-3.497.198-5.169.578-1.673.38-3.041.988-4.257 1.824-1.232.821-2.129 1.825-2.889 3.193-.714 1.277-1.064 2.737-1.064 4.561 0 2.281.654 4.257 1.976 5.777 1.308 1.673 3.345 2.889 5.93 4.105 1.049.426 1.976.852 2.888 1.262.913.411 1.673.837 2.281 1.277.654.441 1.171.928 1.52 1.445.38.517.578 1.125.578 1.824 0 .487-.119.943-.35 1.368-.231.426-.593.791-1.079 1.095-.487.304-1.08.547-1.824.73-.715.167-1.521.258-2.585.258-1.672 0-3.345-.289-4.865-.866a14.45 14.45 0 0 1-4.561-2.585l.289-.067Zm-12.771-18.7h9.73v-6.233h-27.214v6.233h9.73v27.822h7.754v-27.822Z" clip-rule="evenodd"/><g filter="url(#n)"><rect width="78.78" height="78.78" x="282.627" y="440.791" fill="#fff" fill-opacity=".1" rx="14.068"/><rect width="79.718" height="79.718" x="282.158" y="440.322" stroke="#fff" stroke-opacity=".2" stroke-width=".938" rx="14.537"/></g><g clip-path="url(#o)"><path fill="#fff" d="M322.093 453.657c-15.068 0-27.275 12.217-27.275 27.275 0 12.057 7.815 22.276 18.644 25.882 1.369.257 1.864-.587 1.864-1.316 0-.648-.016-2.361-.026-4.635-7.591 1.643-9.19-3.667-9.19-3.667-1.243-3.144-3.036-3.987-3.036-3.987-2.468-1.686.196-1.65.196-1.65 2.734.185 4.173 2.804 4.173 2.804 2.433 4.173 6.382 2.966 7.946 2.264.238-1.758.949-2.967 1.723-3.64-6.055-.684-12.422-3.027-12.422-13.479 0-2.985 1.057-5.415 2.804-7.325-.301-.683-1.225-3.462.241-7.219 0 0 2.282-.728 7.5 2.797 2.184-.605 4.502-.906 6.819-.922 2.318.016 4.635.319 6.818.922 5.188-3.525 7.469-2.797 7.469-2.797 1.464 3.757.54 6.534.274 7.219 1.73 1.91 2.787 4.342 2.787 7.325 0 10.475-6.375 12.785-12.437 13.452.948.816 1.836 2.495 1.836 5.044 0 3.648-.034 6.587-.034 7.475 0 .709.477 1.561 1.882 1.287 10.91-3.568 18.715-13.796 18.715-25.836 0-15.057-12.207-27.275-27.274-27.275l.003.002Z"/></g><g filter="url(#p)"><rect width="78.78" height="78.78" x="129.756" y="416.407" fill="#fff" fill-opacity=".1" rx="14.068"/><rect width="79.718" height="79.718" x="129.287" y="415.938" stroke="#fff" stroke-opacity=".2" stroke-width=".938" rx="14.537"/></g><path fill="url(#q)" d="m194.178 438.911-23.207 41.498a1.262 1.262 0 0 1-2.197.009l-23.667-41.503c-.53-.929.265-2.055 1.318-1.866l23.232 4.152c.148.027.3.026.448-.001l22.746-4.146c1.049-.191 1.847.926 1.327 1.857Z"/><path fill="url(#r)" d="m180.723 431.602-17.174 3.365a.632.632 0 0 0-.508.582l-1.056 17.842a.636.636 0 0 0 .222.519.63.63 0 0 0 .549.133l4.781-1.104a.63.63 0 0 1 .76.741l-1.421 6.956a.63.63 0 0 0 .801.73l2.954-.897a.63.63 0 0 1 .801.731l-2.258 10.926c-.141.684.768 1.057 1.147.471l.253-.392 13.995-27.928a.63.63 0 0 0-.684-.901l-4.922.95a.63.63 0 0 1-.725-.794l3.212-11.136a.63.63 0 0 0-.727-.794Z"/><g filter="url(#s)"><rect width="78.78" height="78.78" x="104.435" y="254.158" fill="#fff" fill-opacity=".1" rx="14.068"/><rect width="79.718" height="79.718" x="103.966" y="253.689" stroke="#fff" stroke-opacity=".2" stroke-width=".938" rx="14.537"/></g><path stroke="#fff" stroke-width="1.579" d="M156.753 293.795V294.023l.018.07v.105l.017.07v.053l.018.052.017.071v.052l.018.07.017.053.018.07v.07l.017.053.018.07.018.07.017.053.035.07.018.07.017.07.018.07.017.071.035.07.018.087.017.071.036.07.017.07.035.088.018.07.035.088.017.087.035.088.036.07.017.088.035.088.035.087.018.105.035.088.017.088.035.105.036.088.017.105.035.105.035.088.018.105.035.105.035.106.017.123.036.105.017.105.035.123.018.105.035.123.017.123.018.122.035.123.018.123.017.123.018.14.035.123.017.14.018.123.017.14v.141l.018.14.017.14.018.141v.14l.017.14V300.67l.018.158V301.284l-.018.158v.316l-.017.175v.158l-.018.158-.017.175-.018.176-.017.158-.018.175-.017.176-.035.175-.035.158-.018.175-.035.193-.035.176-.035.175-.053.175-.035.176-.053.193-.052.175-.053.193-.052.175-.053.193-.07.176-.053.193-.07.193-.07.175-.07.193-.071.193-.087.175-.07.193-.088.193-.088.193-.087.176-.106.193-.087.193-.106.192-.105.193-.105.176-.105.193-.123.193-.105.193-.123.175-.123.193-.123.193-.14.175-.123.193-.14.176-.141.193-.14.175-.158.193-.14.175-.158.176-.158.175-.158.176-.157.193-.176.157-.158.176-.175.175-.176.176-.193.158-.175.175-.193.158-.193.175-.193.158-.193.158-.193.158-.21.158-.211.14-.193.158-.228.14-.21.158-.211.14-.228.141-.228.14-.228.14-.228.123-.228.14-.245.123-.228.123-.246.123-.245.123-.246.105-.246.123-.245.105-.263.105-.263.105-.246.088-.263.105-.263.088-.281.088-.263.087-.263.071-.281.087-.28.07-.263.071-.281.07-.281.052-.28.07-.281.053-.298.053-.281.035-.298.052-.281.036-.298.035-.28.035-.299.017-.298.018-.298.017-.298.018h-.298l-.299.017h-.298l-.298-.017h-.298l-.316-.018-.298-.017-.298-.018-.316-.035-.298-.035-.298-.035-.316-.035-.298-.053-.298-.052-.316-.053-.298-.053-.299-.07-.298-.07-.316-.07-.298-.07-.298-.088-.298-.088-.298-.087-.298-.106-.299-.087-.298-.106-.298-.122-.298-.106-.298-.122-.281-.123-.298-.123-.281-.14-.298-.141-.281-.14-.28-.14-.281-.158-.281-.158-.28-.158-.281-.158-.281-.175-.263-.175-.28-.176-.263-.175-.264-.193-.263-.176-.263-.193-.245-.21-.263-.193-.246-.21-.246-.211-.245-.21-.246-.211-.245-.228-.228-.228-.246-.228-.228-.228-.228-.228-.21-.246-.228-.245-.211-.246-.21-.245-.211-.246-.21-.263-.193-.246-.211-.263-.193-.263-.193-.28-.175-.264-.176-.28-.192-.263-.176-.281-.158-.281-.175-.28-.158-.298-.158-.281-.14-.298-.158-.281-.14-.298-.141-.298-.14-.298-.123-.299-.123-.298-.122-.316-.123-.298-.105-.316-.106-.298-.105-.315-.105-.316-.088-.316-.088-.316-.087-.315-.07-.316-.088-.316-.053-.316-.07-.315-.07-.316-.053-.316-.052-.333-.035-.316-.035-.315-.036-.334-.035-.315-.035-.316-.017-.333-.018-.316v-.316l-.017-.333v-.632l.017-.333v-.316l.018-.315.035-.316.017-.316.035-.316.036-.315.035-.316.052-.316.053-.315.053-.316.052-.298.07-.316.07-.298.071-.316.07-.298.087-.298.088-.299.088-.298.088-.298.105-.298.088-.298.105-.281.123-.281.105-.298.123-.28.122-.281.123-.281.123-.263.14-.281.141-.263.14-.28.14-.263.158-.263.14-.246.158-.263.158-.246.158-.263.158-.245.175-.246.176-.228.175-.246.175-.228.176-.228.175-.228.193-.228.193-.228.176-.21.193-.211.21-.21.193-.211.193-.21.21-.193.193-.193.211-.193.21-.193.211-.193.21-.175.211-.176.228-.175.21-.175.228-.158.211-.158.228-.158.228-.158.228-.158.21-.14.228-.14.228-.141.246-.14.228-.123.228-.14.228-.123.228-.105.246-.123.228-.105.228-.123.245-.105.228-.088.246-.105.228-.088.245-.088.228-.087.246-.088.228-.07.228-.07.246-.07.228-.071.245-.07.228-.052.228-.053.246-.053.228-.052.228-.053.245-.035.229-.035.228-.035.228-.035.228-.035.228-.018.228-.017.228-.018.228-.017.21-.018h.228l.228-.018h.439l.21.018h.421l.211.018.21.017.211.018.21.017.211.018.193.035.21.017.193.035.211.035.192.036.193.035.193.035.193.052.176.035.193.053.175.035.193.053.175.052.176.053.175.053.176.07.175.052.158.053.175.07.158.053.158.07.158.07.158.07.158.07.157.071.158.07.141.07.14.07.158.07.14.07.14.088.123.07.141.07.14.088.123.07.122.088.141.07.123.088.105.088.123.07.122.087.106.071.122.087.106.088.105.07.105.088.105.088.106.07.105.087.088.088.105.07.088.088.105.088.087.07.088.088.088.087.088.07.07.088.087.07.088.088.07.07.07.07.088.088.07.07.07.07.071.088.07.07.07.07.07.071.053.07.07.07.053.07.07.07.052.07.07.053.053.07.053.07.052.053.071.07.052.07.053.053.052.052.053.071.053.052.052.053.035.052.053.053.053.053.052.052.053.053.035.053.053.052.052.035.053.053.035.035.052.053.053.035.035.052.053.035.052.035.035.036.053.035.053.035.035.035.052.035.053.035.053.035.035.035.052.018.053.035.053.035.052.017.053.035.052.018.053.035.053.018.052.017.053.035.053.018.07.017.052.018.053.017.07.035.053.018.07.018.053.017.07.018.07.017.07.018.053.017.07.018.07.017.07.018h.07l.088.017.07.018.07.018.088.017.07.018.088.017.07.018.088.017.087.018.088.017.088.018.088.017.087.018.088.017.088.018.105.018.088.035.105.017.088.018.105.035.088.017.105.018.105.035.105.035.106.018.105.035.123.035.105.017.105.035.123.035.105.036.123.052.105.035.123.035.123.053.122.035.106.053.122.035.123.052.123.053.14.053.123.052.123.053.123.07.14.053.123.07.123.052.14.071.123.07.14.07.14.07.123.07.14.088.123.07.141.088.14.087.14.088.123.088.14.088.141.105.14.088.14.105.123.105.14.105.141.105.14.106.14.105.123.123.14.123.141.122.14.123.123.123.14.123.141.14.122.14.141.123.122.14.141.158.123.141.14.14.123.158.122.158.123.158.123.157.123.158.123.176.122.158.123.175.123.175.123.176.105.175.123.193.105.175.105.193.105.193.106.193.105.193.105.193.105.211.088.21.105.193.088.211.088.21.087.228.088.211.088.21.07.228.088.228.07.228.07.228.07.228.07.228.071.228.052.246.053.245.052.228.053.246.053.246.052.245.035.246.035.263.036.245.035.246.035.263.017.263.018.246.017.263.018.263.017.263v1.07l-.017.263-.018.263-.017.281-.018.263-.017.281-.035.263-.035.28-.036.263-.035.281-.052.281-.053.263-.053.281-.052.28-.07.263-.07.281-.071.281-.07.263-.07.28-.088.281-.087.263-.088.281-.105.263-.106.281-.105.263-.105.28-.105.263-.123.281-.123.263-.123.263-.14.263-.14.263-.123.264-.158.263-.14.263-.158.263-.158.263-.158.246-.158.263-.175.245-.175.246-.176.263-.175.245-.193.228-.176.246-.193.246-.21.228-.193.245-.211.228-.21.228-.21.228-.211.228-.228.228-.228.211-.211.21-.245.211-.228.21-.246.211-.228.21-.245.193-.246.193-.263.193-.246.193-.263.193-.263.175-.263.176-.263.175-.281.176-.263.175-.28.158-.281.158-.281.158-.28.157-.281.141-.298.14-.281.14-.298.141-.298.123-.298.14-.299.105-.298.123-.315.123-.299.105-.315.105-.299.105-.315.088-.316.088-.316.088-.315.087-.316.07-.316.071-.316.07-.333.07-.316.052-.315.053-.334.053-.315.035-.334.035-.333.035-.316.035-.333.018-.316.017-.333.018-.333.017h-.982l-.334-.017-.315-.018-.334-.017-.333-.018-.316-.035-.333-.035-.316-.035-.333-.053-.316-.052-.333-.053-.316-.053-.315-.07-.334-.07-.315-.07-.316-.07-.316-.088-.316-.088-.315-.087-.299-.106-.315-.087-.298-.106-.316-.122-.298-.106-.299-.122-.315-.123-.281-.123-.298-.14-.298-.123-.298-.14-.281-.158-.281-.141-.298-.157-.281-.158-.263-.158-.28-.158-.281-.175-.263-.176-.263-.175-.263-.176-.263-.175-.264-.193-.245-.193-.246-.193-.263-.193-.228-.21-.245-.193-.246-.211-.228-.21-.228-.211-.228-.228-.228-.21-.211-.228-.228-.228-.21-.211-.211-.245-.192-.228-.211-.228-.193-.246-.193-.246-.175-.228-.193-.245-.176-.246-.175-.263-.175-.245-.176-.246-.158-.263-.158-.246-.157-.263-.158-.263-.141-.263-.14-.263-.14-.263-.141-.263-.122-.263-.123-.264-.123-.28-.123-.263-.105-.263-.123-.281-.087-.263-.106-.281-.105-.263-.088-.281-.087-.28-.088-.263-.07-.281-.07-.281-.071-.263-.07-.28-.052-.281-.07-.263-.053-.281-.053-.28-.035-.263-.035-.281-.052-.263-.018-.281-.035-.263-.018-.281-.035-.263v-.28l-.017-.263-.018-.264v-.806l.018-.264v-.263l.017-.263.018-.263.017-.245.035-.264.018-.245.035-.263.035-.246.035-.263.053-.245.035-.246.053-.246.052-.245.053-.228.07-.246.053-.228.07-.245.07-.228.07-.228.07-.228.07-.228.088-.229.07-.21.088-.228.088-.21.087-.211.088-.21.088-.211.105-.21.088-.193.105-.211.105-.193.105-.193.106-.193.105-.193.105-.193.123-.175.105-.193.123-.175.123-.176.105-.175.123-.176.123-.157.122-.176.123-.158.123-.158.123-.157.14-.158.123-.141.123-.157.14-.141.123-.14.14-.14.123-.141.14-.14.14-.123.123-.14.141-.123.14-.123.123-.123.14-.105.14-.123.141-.105.14-.105.123-.123.14-.105.14-.088.141-.105.14-.088.123-.105.14-.088.14-.087.141-.088.123-.088.14-.087.14-.071.123-.07.14-.088.141-.07.122-.07.141-.07.123-.07.14-.053.123-.07.122-.053.141-.052.123-.07.122-.053.123-.053.123-.035.123-.052.122-.053.123-.035.123-.053.105-.035.123-.052.123-.035.105-.035.123-.036.105-.035.105-.035.123-.035.105-.017.106-.035.105-.036.105-.017.105-.035.106-.018.087-.035.106-.017.105-.018.087-.035.106-.017.087-.018.088-.018.088-.017.088-.018.087-.017.088-.018.088-.017.087-.018.088-.017.07-.018.088-.017.07-.018.088-.017.07-.018.07-.018.07-.017.07-.018.088-.017.053-.018h.07l.07-.017.07-.018.07-.017.053-.018.07-.017.053-.036.07-.017.053-.018.07-.017.052-.018.053-.017.053-.035.07-.018.052-.017.053-.035.053-.018.052-.018.053-.035.052-.035.036-.017.052-.035.053-.035.052-.018.053-.035.035-.035.053-.035.052-.035.053-.035.035-.035.053-.036.052-.052.035-.035.053-.035.053-.053.035-.035.052-.053.053-.035.035-.052.053-.053.052-.053.053-.035.035-.052.053-.053.052-.053.053-.07.052-.052.053-.053.053-.053.052-.07.053-.052.053-.07.052-.053.053-.07.07-.07.053-.053.052-.07.07-.07.053-.071.07-.07.07-.07.053-.07.07-.07.07-.07.07-.071.071-.087.07-.07.07-.071.088-.087.07-.07.07-.071.088-.087.087-.07.071-.088.087-.07.088-.088.088-.088.087-.07.106-.088.087-.07.106-.087.087-.088.105-.07.106-.088.105-.088.105-.07.105-.088.106-.087.122-.07.106-.088.122-.088.123-.07.123-.088.123-.087.123-.071.122-.087.141-.07.123-.071.14-.087.14-.07.14-.088.141-.07.14-.07.158-.071.14-.07.158-.07.158-.07.14-.07.158-.07.176-.071.158-.052.157-.07.176-.053.158-.07.175-.053.175-.052.176-.053.175-.053.176-.052.193-.053.175-.053.193-.035.193-.052.193-.035.175-.035.211-.053.193-.035.193-.018.193-.035.21-.035.211-.017.192-.018.211-.017.21-.018.211-.017.21-.018h.211l.228-.018h.421l.228.018h.438l.228.018.229.017.228.018.228.017.228.035.228.018.228.035.228.035.228.035.228.053.245.035.228.052.228.053.246.07.228.053.228.07.246.053.228.07.245.087.228.071.246.087.228.088.245.088.228.087.246.106.228.105.228.105.246.105.228.106.228.122.245.123.228.123.228.123.228.14.228.123.228.14.228.158.228.14.228.158.228.158.211.158.228.158.21.158.228.175.211.175.21.176.211.193.21.175.211.193.21.193.211.193.193.211.193.192.21.211.193.21.193.211.193.228.175.21.193.228.176.228.175.229.176.245.175.228.175.246.158.245.176.246.158.263.157.245.158.264.141.245.157.263.141.281.14.263.123.263.14.281.123.28.14.264.106.28.122.298.123.281.105.281.106.298.105.298.088.281.087.298.088.298.088.298.087.316.07.298.071.298.07.316.07.298.053.316.052.316.053.315.035.299.035.315.035.316.035.316.035.333.018.316.017.316v.315l.018.316v.649l-.018.316v.333l-.017.316-.035.315-.018.334-.035.315-.035.316-.035.333-.053.316-.052.316-.053.333-.07.316-.053.316-.07.315-.088.316-.07.316-.087.316-.088.315-.088.316-.105.316-.105.298-.106.316-.122.298-.106.316-.122.298-.123.298-.14.316-.141.298-.14.281-.14.298-.141.298-.158.281-.158.298-.157.28-.176.281-.158.281-.175.28-.193.281-.175.263-.193.281-.193.263-.193.263-.193.263-.193.246-.211.263-.21.245-.211.246-.228.245-.21.246-.228.246-.228.228-.228.228-.228.228-.246.228-.245.21-.246.228-.245.211-.246.21-.246.193-.263.211-.245.193-.263.192-.263.193-.264.176-.28.175-.263.176-.281.175-.263.175-.281.158-.28.158-.281.158-.281.14-.28.158-.299.141-.28.122-.281.141-.298.122-.298.123-.281.123-.298.123-.298.105-.298.105-.299.088-.298.105-.298.088-.298.088-.316.087-.298.07-.298.071-.298.07-.316.07-.298.053-.299.052-.315.053-.298.035-.299.053-.315.035-.299.035-.298.017-.316.018-.298.017-.298.018h-.298l-.298.017h-.298l-.316-.017h-.298l-.281-.018-.298-.017-.298-.018-.299-.035-.298-.017-.28-.035-.299-.053-.28-.035-.298-.053-.281-.052-.281-.053-.28-.053-.281-.07-.281-.07-.28-.07-.263-.07-.281-.07-.263-.088-.281-.088-.263-.088-.263-.087-.263-.106-.246-.105-.263-.087-.245-.106-.263-.123-.246-.105-.246-.123-.245-.122-.246-.123-.228-.123-.245-.123-.228-.122-.228-.141-.228-.14-.228-.14-.211-.141-.228-.14-.21-.14-.211-.158-.21-.141-.211-.157-.193-.158-.193-.158-.21-.158-.193-.158-.176-.175-.193-.158-.175-.158-.193-.175-.175-.176-.176-.175-.158-.176-.175-.175-.158-.175-.158-.176-.158-.175-.157-.176-.141-.175-.158-.193-.14-.175-.14-.193-.123-.176-.14-.193-.123-.175-.123-.193-.123-.193-.123-.193-.122-.175-.106-.193-.105-.193-.123-.193-.087-.176-.106-.193-.105-.193-.087-.192-.088-.193-.088-.176-.088-.193-.07-.193-.087-.193-.071-.175-.07-.193-.07-.193-.07-.175-.053-.193-.07-.176-.053-.193-.052-.175-.053-.193-.052-.175-.035-.193-.053-.176-.035-.175-.035-.176-.035-.175-.035-.193-.035-.175-.018-.158-.035-.176-.018-.175-.017-.175-.018-.158-.017-.176-.018-.158-.017-.175v-.158l-.018-.158v-.175l-.017-.158V300.793l.017-.14V300.355l.018-.158.017-.141v-.14l.018-.14.017-.14.018-.141.017-.123.018-.14.017-.14.018-.123.018-.123.017-.123.035-.122.018-.123.017-.123.035-.123.018-.123.035-.105.017-.123.036-.105.017-.123.035-.105.018-.105.035-.105.035-.106.017-.105.035-.087.036-.106.017-.087.035-.106.035-.087.018-.088.035-.105.017-.088.036-.088.035-.087.017-.071.035-.087.018-.088.035-.07.017-.088.035-.07.018-.088.035-.07.018-.07.035-.088.017-.07.018-.07.017-.07.035-.07.018-.053.017-.07.018-.07.018-.071.017-.07.018-.052.017-.07v-.053l.018-.07.017-.053.018-.07v-.053l.017-.07v-.052l.018-.053v-.123l.017-.052v-.421l-.017-.053v-.123l-.018-.052v-.123l-.017-.053-.018-.07v-.053l-.017-.07-.018-.052-.017-.071-.018-.052-.017-.07-.018-.071-.018-.052-.017-.07-.018-.07-.017-.071-.018-.07-.017-.07-.035-.07-.018-.07-.017-.07-.035-.088-.018-.07-.035-.07-.018-.088-.035-.07-.017-.088-.035-.088-.018-.087-.035-.071-.035-.087-.018-.088-.035-.088-.035-.105-.017-.088-.035-.087-.018-.106-.035-.087-.035-.106-.018-.105-.035-.105-.035-.105-.017-.106-.035-.105-.018-.105-.035-.105-.035-.123-.018-.105-.035-.123-.017-.123-.018-.105-.035-.123-.017-.123-.018-.14-.017-.123-.036-.123-.017-.14-.018-.123-.017-.14-.018-.123-.017-.14v-.14l-.018-.141-.017-.14v-.158l-.018-.14V286.884l-.017-.158V286.27l.017-.158v-.316l.018-.175v-.158l.017-.158.018-.175.017-.158.018-.176.017-.175.035-.176.018-.175.035-.175.035-.176.035-.175.035-.176.035-.175.035-.175.053-.193.053-.176.035-.175.052-.193.053-.175.07-.193.053-.176.07-.193.07-.193.07-.175.07-.193.071-.193.087-.193.07-.175.088-.193.088-.193.088-.193.105-.176.088-.193.105-.193.105-.192.105-.193.106-.176.122-.193.123-.193.105-.193.123-.175.14-.193.123-.175.141-.193.14-.193.14-.176.141-.175.14-.193.158-.175.158-.176.157-.175.158-.193.158-.176.176-.175.157-.158.176-.175.193-.176.175-.158.176-.175.193-.158.192-.175.193-.158.193-.158.211-.158.193-.14.21-.158.211-.158.21-.14.211-.141.228-.157.228-.141.21-.122.228-.141.228-.14.246-.123.228-.123.245-.122.246-.123.246-.123.245-.105.246-.123.245-.105.263-.106.264-.105.245-.087.263-.106.263-.087.281-.088.263-.088.263-.07.281-.088.28-.07.281-.07.263-.07.281-.053.298-.052.281-.053.28-.053.281-.052.298-.035.298-.035.281-.036.298-.035.298-.017.299-.035h.28l.298-.018.299-.017h.614l.298.017h.298l.298.018.298.017.316.035.298.018.298.035.316.035.298.053.298.035.316.052.298.053.299.07.315.053.299.07.298.088.298.07.316.088.298.087.298.088.298.105.298.105.299.106.298.105.28.123.299.122.298.123.28.123.299.14.28.141.281.14.298.14.281.158.28.158.263.158.281.158.281.175.263.176.281.175.263.175.263.193.263.193.263.193.246.193.263.193.245.211.246.21.245.211.246.228.245.21.228.228.229.228.228.228.228.246.228.245.21.228.228.246.211.263.21.246.193.263.211.245.192.263.193.263.193.281.176.263.193.281.175.263.176.281.157.28.158.298.176.281.158.281.14.298.158.298.14.281.14.298.123.298.14.316.123.298.123.298.105.316.106.298.105.316.105.316.105.298.088.316.088.315.087.316.07.316.071.315.07.316.07.333.053.316.052.316.053.316.052.333.036.316.035.315.017.334.035.315.018.316.017.333.018.316V292.409l-.018.316-.017.333-.018.316-.017.315-.035.316-.018.316-.035.315-.053.316-.035.316-.052.298-.053.316-.07.316-.07.298-.053.315-.088.299-.07.298-.087.316-.088.298-.088.298-.088.298-.105.281-.105.298-.105.281-.106.298-.122.28-.106.281-.122.281-.141.28-.122.281-.141.263-.123.263-.157.281-.141.263-.14.263-.158.246-.158.263-.158.245-.158.263-.157.246-.176.228-.175.246-.176.245-.175.228-.175.228-.176.228-.193.228-.193.211-.193.228-.193.21-.193.211-.192.21-.211.193-.193.193-.21.211-.211.175-.21.193-.211.193-.21.175-.211.176-.21.175-.228.158-.211.175-.228.158-.228.158-.21.158-.228.14-.228.158-.228.141-.228.14-.228.123-.229.14-.245.123-.228.123-.228.122-.228.106-.246.122-.228.106-.245.105-.228.088-.228.105-.246.087-.228.088-.246.088-.228.088-.245.07-.228.07-.246.07-.228.07-.228.053-.245.07-.228.053-.246.052-.228.053-.228.035-.228.035-.246.053-.228.035-.228.017-.228.035-.228.018-.228.017-.21.018-.228.018-.228.017h-.228l-.211.018h-.438l-.211-.018h-.228l-.21-.017H149l-.21-.018-.211-.018-.193-.017-.21-.035-.211-.018-.193-.035-.21-.017-.193-.035-.193-.035-.193-.036-.193-.052-.193-.035-.175-.053-.193-.035-.176-.053-.192-.052-.176-.053-.175-.052-.176-.053-.175-.053-.176-.07-.157-.052-.176-.071-.158-.052-.158-.07-.157-.071-.158-.052-.158-.07-.158-.071-.14-.07-.158-.087-.14-.071-.141-.07-.14-.07-.14-.088-.141-.07-.14-.07-.123-.088-.14-.07-.123-.087-.123-.071-.123-.087-.122-.071-.123-.087-.105-.088-.123-.07-.105-.088-.106-.087-.122-.071-.106-.087-.105-.088-.088-.07-.105-.088-.105-.088-.088-.07-.087-.087-.106-.088-.087-.07-.088-.088-.088-.07-.088-.088-.07-.088-.087-.07-.071-.07-.087-.088-.07-.07-.071-.088-.087-.07-.07-.07-.071-.07-.07-.088-.052-.07-.071-.07-.07-.07-.07-.07-.053-.071-.07-.07-.052-.052-.053-.07-.07-.071-.053-.07-.052-.052-.053-.071-.053-.052-.052-.07-.053-.053-.052-.053-.053-.07-.053-.052-.052-.053-.053-.053-.053-.052-.035-.053-.052-.052-.053-.036-.052-.052-.036-.053-.052-.035-.053-.052-.035-.036-.053-.052-.052-.035-.035-.035-.053-.053-.052-.035-.053-.035-.035-.035-.053-.035-.052-.035-.035-.035-.053-.018-.053-.035-.052-.035-.053-.018-.053-.035-.052-.035-.053-.017-.052-.035-.053-.018-.053-.018-.052-.035-.053-.017-.053-.018-.052-.017-.07-.035-.053-.018-.07-.017-.053-.018-.07-.018-.053-.017-.07-.018-.07-.017-.052-.018-.071-.017-.07-.018-.07-.017-.07-.018-.07-.017-.088-.018h-.07l-.07-.017-.088-.018-.07-.018-.088-.017-.07-.018-.088-.017-.087-.018-.088-.017-.088-.018-.088-.017-.087-.018-.088-.017-.088-.035-.105-.018-.088-.018-.105-.017-.088-.035-.105-.018-.105-.017-.088-.035-.105-.018-.105-.035-.105-.035-.123-.018-.105-.035-.106-.035-.105-.035-.123-.035-.105-.035-.123-.035-.123-.035-.105-.053-.123-.035-.122-.052-.123-.036-.123-.052-.123-.053-.123-.052-.122-.053-.123-.053-.123-.052-.14-.053-.123-.07-.123-.053-.14-.07-.123-.07-.14-.07-.123-.07-.14-.071-.141-.07-.122-.087-.141-.071-.14-.087-.123-.088-.14-.088-.14-.087-.141-.088-.14-.105-.123-.088-.14-.105-.141-.105-.14-.106-.14-.105-.123-.105-.14-.123-.141-.105-.14-.123-.123-.123-.14-.123-.14-.122-.123-.141-.14-.122-.141-.141-.123-.14-.14-.14-.123-.141-.14-.158-.123-.14-.123-.158-.14-.158-.123-.158-.122-.157-.123-.158-.123-.176-.123-.158-.123-.175-.105-.175-.123-.176-.105-.175-.123-.193-.105-.193-.105-.175-.105-.193-.123-.193-.088-.193-.105-.211-.105-.193-.088-.21-.105-.211-.088-.21-.088-.211-.087-.21-.088-.211-.088-.228-.07-.228-.088-.21-.07-.228-.07-.228-.07-.228-.07-.246-.053-.228-.07-.245-.053-.228-.052-.246-.053-.246-.053-.245-.035-.246-.052-.245-.035-.263-.035-.246-.018-.246-.035-.263-.018-.263-.017-.245-.018-.263-.017-.264-.018-.263v-1.07l.018-.263.017-.263.018-.28.017-.264.035-.28.018-.263.035-.281.035-.281.053-.263.052-.28.035-.263.071-.281.052-.281.07-.263.053-.281.07-.28.088-.263.07-.281.088-.281.087-.263.106-.28.087-.281.106-.263.105-.281.105-.263.123-.263.123-.281.122-.263.123-.263.123-.263.14-.263.141-.263.14-.263.158-.263.158-.263.158-.264.157-.245.158-.263.176-.246.175-.245.176-.246.175-.245.193-.246.193-.246.193-.245.193-.228.21-.246.193-.228.211-.228.21-.228.228-.21.211-.228.228-.211.228-.228.228-.21.245-.211.228-.193.246-.21.245-.193.246-.211.263-.175.246-.193.263-.193.263-.175.263-.176.263-.175.281-.176.263-.175.281-.158.28-.158.281-.158.28-.14.299-.158.28-.14.298-.14.299-.123.28-.141.299-.122.315-.123.298-.123.299-.105.315-.105.299-.106.315-.105.316-.088.316-.087.315-.088.316-.088.316-.07.316-.07.315-.07.316-.053.333-.07.316-.053.333-.035.316-.052.333-.035.316-.035.333-.018.334-.035.315-.018h.334l.333-.017h.982l.316.017.333.018.333.017.316.036.333.017.334.035.315.053.334.035.315.052.316.053.333.07.316.053.316.07.316.088.315.07.316.088.316.087.316.088.315.105.316.106.298.105.298.105.316.123.298.105.298.123.299.14.298.123.28.14.299.141.28.14.299.158.28.158.281.157.28.158.264.158.28.176.263.175.263.175.264.176.263.193.263.175.245.193.246.193.245.211.246.192.246.211.228.21.245.211.228.21.228.211.211.228.228.21.21.228.211.228.21.229.193.245.211.228.193.246.193.228.192.245.176.246.175.245.176.246.175.263.175.246.158.263.158.245.158.263.14.264.158.263.141.263.14.263.123.263.14.263.123.263.123.281.105.263.123.263.105.281.105.263.088.28.105.281.088.263.087.281.071.263.087.281.07.28.071.263.07.281.052.281.053.263.053.28.052.281.053.263.035.281.035.28.035.264.018.28.035.263.017.281.018.263v.263l.017.281v.789l-.017.263v.263l-.018.263-.017.264-.035.245-.018.263-.035.246-.035.263-.035.245-.035.246-.035.263-.053.246-.053.228-.052.245-.053.246-.052.245-.071.228-.07.228-.052.246-.07.228-.088.228-.07.211-.071.228-.087.228-.088.21-.088.211-.087.228-.088.21-.105.193-.088.211-.105.21-.088.193-.105.193-.105.21-.106.193-.105.176-.123.193-.105.175-.123.193-.105.175-.123.176-.123.175-.105.176-.123.158-.122.175-.141.158-.122.158-.123.158-.123.157-.123.141-.14.158-.123.14-.14.14-.123.141-.14.14-.141.123-.122.14-.141.123-.14.123-.123.122-.14.123-.14.123-.141.105-.123.123-.14.105-.14.105-.141.106-.14.087-.123.106-.14.105-.14.088-.141.087-.14.088-.123.088-.14.087-.14.071-.123.087-.141.07-.14.088-.123.07-.14.07-.123.071-.14.052-.123.07-.123.053-.14.07-.123.053-.123.052-.122.053-.123.053-.123.052-.123.053-.122.035-.123.053-.123.035-.123.052-.105.035-.123.035-.123.036-.105.035-.105.035-.123.035-.105.035-.105.035-.106.017-.105.036-.105.035-.105.017-.106.035-.105.018-.087.017-.106.035-.087.018-.106.018-.087.017-.088.018-.088.017-.087.018-.088.035-.088.017-.088.018h-.087l-.088.017-.07.018-.088.017-.07.018-.088.018-.07.017-.07.018-.07.017-.07.018-.071.017-.07.018-.07.017-.07.018-.07.017-.053.018-.07.017-.07.018-.053.018-.07.017-.053.018-.052.017-.07.018-.053.035-.053.017-.052.018-.053.035-.052.018-.053.017-.053.035-.052.018-.053.035-.053.035-.052.017-.053.035-.035.036-.052.035-.053.017-.053.035-.035.035-.052.035-.053.053-.053.035-.035.035-.052.035-.053.053-.035.035-.053.053-.052.035-.035.052-.053.053-.053.035-.035.053-.052.052-.053.053-.053.052-.052.053-.053.053-.035.052-.053.071-.052.052-.053.053-.07.07-.053.053-.052.07-.053.07-.052.052-.071.071-.052.07-.07.07-.053.07-.07.07-.053.07-.07.071-.07.07-.07.07-.07.07-.071.07-.07.088-.07.07-.07.07-.088.088-.07.07-.088.088-.087.07-.07.088-.088.07-.088.088-.088.087-.105.07-.088.088-.087.07-.105.088-.088.088-.105.07-.106.088-.105.087-.105.07-.105.088-.123.088-.105.07-.123.088-.123.087-.105.071-.123.087-.123.07-.14.088-.123.07-.123.088-.14.07-.14.088-.141.07-.14.07-.14.088-.141.07-.14.07-.158.07-.158.071-.14.07-.158.07-.158.07-.158.053-.175.07-.158.07-.175.053-.158.052-.176.07-.175.053-.175.053-.176.052-.193.053-.175.052-.176.036-.192.052-.193.035-.193.053-.193.035-.193.035-.193.035-.193.035-.211.018-.193.035-.21.017-.211.018-.21.035h-.193l-.21.018-.228.017h-.211l-.21.018h-.439l-.21-.018h-.228l-.229-.017h-.228l-.21-.018-.228-.018-.228-.035-.228-.017-.228-.035-.228-.035-.246-.035-.228-.035-.228-.036-.228-.052-.245-.053-.228-.052-.228-.053-.246-.07-.228-.053-.246-.07-.228-.07-.245-.088-.228-.07-.228-.088-.246-.087-.228-.088-.245-.088-.228-.105-.246-.105-.228-.106-.228-.105-.246-.123-.228-.105-.228-.123-.245-.122-.228-.141-.228-.123-.228-.14-.228-.14-.228-.14-.228-.158-.228-.141-.211-.158-.228-.157-.21-.176-.228-.158-.211-.175-.228-.175-.21-.176-.211-.193-.21-.175-.211-.193-.193-.193-.21-.211-.193-.193-.211-.21-.193-.211-.193-.21-.193-.21-.193-.211-.175-.228-.193-.228-.175-.228-.176-.228-.175-.246-.175-.228-.176-.245-.158-.246-.175-.245-.158-.246-.158-.263-.14-.263-.158-.246-.14-.263-.141-.28-.14-.264-.14-.263-.141-.28-.122-.281-.123-.281-.123-.28-.105-.281-.123-.281-.105-.298-.106-.28-.105-.299-.087-.298-.088-.298-.088-.298-.088-.298-.087-.299-.07-.298-.071-.315-.07-.299-.052-.315-.053-.316-.053-.298-.052-.316-.053-.316-.035-.315-.035-.316-.018-.316-.035-.316-.017-.315-.018-.334v-.315l-.017-.316v-.649l.017-.316.018-.316.017-.333.018-.316.035-.315.017-.334.053-.315.035-.316.053-.333.052-.316.053-.316.053-.315.07-.334.07-.315.088-.316.07-.316.088-.316.087-.315.106-.299.087-.315.105-.316.106-.298.122-.316.123-.298.123-.316.123-.298.123-.298.14-.298.14-.299.158-.298.14-.28.158-.299.158-.28.158-.281.175-.281.158-.28.176-.281.193-.281.175-.263.193-.28.193-.263.193-.263.193-.264.21-.245.211-.263.21-.246.211-.245.21-.246.228-.246.228-.228.228-.245.228-.228.228-.228.246-.211.228-.228.246-.21.245-.211.263-.21.246-.211.263-.193.245-.193.264-.192.263-.193.263-.176.28-.175.264-.176.28-.175.263-.175.281-.158.281-.158.28-.158.281-.14.298-.141.281-.14.28-.14.299-.141.28-.122.298-.123.299-.105.298-.123.298-.105.298-.106.298-.105.299-.088.298-.087.298-.088.298-.088.298-.07.316-.07.298-.07.298-.053.316-.07.298-.053.298-.035.316-.052.298-.035.299-.036.298-.035.316-.017.298-.035h.298l.316-.018.298-.017h.596l.298.017h.299l.298.018.298.017.298.018.281.035.298.035.298.035.281.035.298.053.281.035.28.052.281.071.281.052.28.07.281.053.281.088.28.07.263.07.263.088.281.087.263.088.263.088.263.105.246.105.263.106.246.105.263.105.245.123.246.105.245.123.228.123.246.122.228.123.246.141.228.14.228.123.21.14.228.14.211.158.21.141.211.14.21.158.211.158.193.157.21.158.193.158.193.158.193.158.175.175.193.158.176.176.175.175.175.175.158.176.176.175.158.176.157.175.158.175.141.176.157.193.141.175.14.176.14.193.141.175.123.193.14.193.123.175.122.193.123.193.105.176.123.192.105.193.106.193.105.193.088.176.105.193.088.193.087.193.088.175.088.193.07.193.088.193.07.175.07.193.07.193.053.175.07.193.052.193.053.176.07.193.035.175.053.176.053.192.035.176.035.175.052.176.035.193.018.175.035.175.035.158.018.176.017.175.035.176.018.157.017.176v.158l.018.175.017.158v.316l.018.157v.474l-.018.158V287.129l-.017.14v.141l-.018.158v.14l-.017.14-.018.123-.017.14-.018.141-.017.14-.018.123-.017.123-.018.14-.035.123-.018.123-.017.122-.035.123-.018.123-.017.105-.035.123-.018.105-.035.123-.018.105-.035.105-.035.106-.017.105-.035.105-.035.105-.018.088-.035.105-.035.106-.018.087-.035.088-.035.105-.017.088-.035.088-.018.087-.035.088-.035.07-.018.088-.035.088-.017.07-.035.087-.018.071-.035.087-.018.07-.017.071-.035.07-.018.07-.017.07-.035.07-.018.07-.017.071-.018.07-.017.07-.018.07-.018.053-.017.07-.018.052-.017.071v.07l-.018.052-.017.071v.052l-.018.053v.07l-.017.053v.122l-.018.053v.175"/><g filter="url(#t)"><rect width="78.78" height="78.78" x="322.955" y="559.898" fill="#fff" fill-opacity=".1" rx="14.068"/><rect width="79.718" height="79.718" x="322.486" y="559.43" stroke="#fff" stroke-opacity=".2" stroke-width=".938" rx="14.537"/></g><path fill="#fff" d="M336.09 568.339a.928.928 0 0 0-.939 1.027l4.782 53.648c.051.565.539 1.152 1.086 1.304l20.296 5.635c.547.152 1.441.152 1.988 0l20.358-5.644c.547-.152 1.036-.738 1.086-1.303l4.791-53.64a.929.929 0 0 0-.94-1.027H336.09Zm43.262 12.304-.174 1.944-.126 1.407-.161 1.796c-.038.422-.074.768-.08.768h-25.1a.93.93 0 0 0-.94 1.027l.442 4.942a1.153 1.153 0 0 0 1.124 1.027H377.28c.505 0 .881.413.836.917a854.55 854.55 0 0 0-.175 1.944l-1.422 15.932-.143 1.604c-.028.317-.498.701-1.045.852l-11.993 3.326c-.546.151-1.001.277-1.009.278-.009.002-.463-.12-1.01-.272l-12.005-3.331c-.547-.152-1.035-.739-1.086-1.304l-.773-8.674a.93.93 0 0 1 .941-1.027h4.792c.567 0 1.073.462 1.123 1.027l.303 3.396c.051.565.54 1.148 1.088 1.296l5.616 1.517 1 .269 1-.27 5.626-1.52c.547-.148 1.037-.731 1.088-1.296l.61-6.803a.929.929 0 0 0-.94-1.027H348.09a1.152 1.152 0 0 1-1.123-1.028l-1.497-16.773-.174-1.944c-.045-.504.383-.917.95-.917h32.156c.568 0 .995.413.95.917Z"/></g><defs><filter id="d" width="144.429" height="144.429" x="50.04" y="537.389" color-interpolation-filters="sRGB" filterUnits="userSpaceOnUse"><feFlood flood-opacity="0" result="BackgroundImageFix"/><feGaussianBlur in="BackgroundImageFix" stdDeviation="15.944"/><feComposite in2="SourceAlpha" operator="in" result="effect1_backgroundBlur_415_11747"/><feBlend in="SourceGraphic" in2="effect1_backgroundBlur_415_11747" result="shape"/></filter><filter id="f" width="143.491" height="143.492" x="262.587" y="33.418" color-interpolation-filters="sRGB" filterUnits="userSpaceOnUse"><feFlood flood-opacity="0" result="BackgroundImageFix"/><feGaussianBlur in="BackgroundImageFix" stdDeviation="15.944"/><feComposite in2="SourceAlpha" operator="in" result="effect1_backgroundBlur_415_11747"/><feBlend in="SourceGraphic" in2="effect1_backgroundBlur_415_11747" result="shape"/></filter><filter id="g" width="144.429" height="144.429" x="98.214" y="-7.158" color-interpolation-filters="sRGB" filterUnits="userSpaceOnUse"><feFlood flood-opacity="0" result="BackgroundImageFix"/><feGaussianBlur in="BackgroundImageFix" stdDeviation="15.944"/><feComposite in2="SourceAlpha" operator="in" result="effect1_backgroundBlur_415_11747"/><feBlend in="SourceGraphic" in2="effect1_backgroundBlur_415_11747" result="shape"/></filter><filter id="h" width="29.084" height="25.382" x="155.816" y="52.441" color-interpolation-filters="sRGB" filterUnits="userSpaceOnUse"><feFlood flood-opacity="0" result="BackgroundImageFix"/><feGaussianBlur in="BackgroundImageFix" stdDeviation="1.565"/><feComposite in2="SourceAlpha" operator="in" result="effect1_backgroundBlur_415_11747"/><feBlend in="SourceGraphic" in2="effect1_backgroundBlur_415_11747" result="shape"/></filter><filter id="i" width="145.005" height="145.006" x="382.2" y="300.273" color-interpolation-filters="sRGB" filterUnits="userSpaceOnUse"><feFlood flood-opacity="0" result="BackgroundImageFix"/><feGaussianBlur in="BackgroundImageFix" stdDeviation="15.944"/><feComposite in2="SourceAlpha" operator="in" result="effect1_backgroundBlur_415_11747"/><feBlend in="SourceGraphic" in2="effect1_backgroundBlur_415_11747" result="shape"/></filter><filter id="j" width="144.429" height="144.429" x="177.588" y="133.175" color-interpolation-filters="sRGB" filterUnits="userSpaceOnUse"><feFlood flood-opacity="0" result="BackgroundImageFix"/><feGaussianBlur in="BackgroundImageFix" stdDeviation="15.944"/><feComposite in2="SourceAlpha" operator="in" result="effect1_backgroundBlur_415_11747"/><feBlend in="SourceGraphic" in2="effect1_backgroundBlur_415_11747" result="shape"/></filter><filter id="k" width="144.429" height="144.429" x="327.796" y="183.97" color-interpolation-filters="sRGB" filterUnits="userSpaceOnUse"><feFlood flood-opacity="0" result="BackgroundImageFix"/><feGaussianBlur in="BackgroundImageFix" stdDeviation="15.944"/><feComposite in2="SourceAlpha" operator="in" result="effect1_backgroundBlur_415_11747"/><feBlend in="SourceGraphic" in2="effect1_backgroundBlur_415_11747" result="shape"/></filter><filter id="m" width="143.491" height="143.492" x="219.791" y="271.039" color-interpolation-filters="sRGB" filterUnits="userSpaceOnUse"><feFlood flood-opacity="0" result="BackgroundImageFix"/><feGaussianBlur in="BackgroundImageFix" stdDeviation="15.944"/><feComposite in2="SourceAlpha" operator="in" result="effect1_backgroundBlur_415_11747"/><feBlend in="SourceGraphic" in2="effect1_backgroundBlur_415_11747" result="shape"/></filter><filter id="n" width="144.429" height="144.429" x="249.802" y="407.966" color-interpolation-filters="sRGB" filterUnits="userSpaceOnUse"><feFlood flood-opacity="0" result="BackgroundImageFix"/><feGaussianBlur in="BackgroundImageFix" stdDeviation="15.944"/><feComposite in2="SourceAlpha" operator="in" result="effect1_backgroundBlur_415_11747"/><feBlend in="SourceGraphic" in2="effect1_backgroundBlur_415_11747" result="shape"/></filter><filter id="p" width="144.429" height="144.429" x="96.931" y="383.582" color-interpolation-filters="sRGB" filterUnits="userSpaceOnUse"><feFlood flood-opacity="0" result="BackgroundImageFix"/><feGaussianBlur in="BackgroundImageFix" stdDeviation="15.944"/><feComposite in2="SourceAlpha" operator="in" result="effect1_backgroundBlur_415_11747"/><feBlend in="SourceGraphic" in2="effect1_backgroundBlur_415_11747" result="shape"/></filter><filter id="s" width="144.429" height="144.429" x="71.61" y="221.333" color-interpolation-filters="sRGB" filterUnits="userSpaceOnUse"><feFlood flood-opacity="0" result="BackgroundImageFix"/><feGaussianBlur in="BackgroundImageFix" stdDeviation="15.944"/><feComposite in2="SourceAlpha" operator="in" result="effect1_backgroundBlur_415_11747"/><feBlend in="SourceGraphic" in2="effect1_backgroundBlur_415_11747" result="shape"/></filter><filter id="t" width="144.429" height="144.429" x="290.131" y="527.073" color-interpolation-filters="sRGB" filterUnits="userSpaceOnUse"><feFlood flood-opacity="0" result="BackgroundImageFix"/><feGaussianBlur in="BackgroundImageFix" stdDeviation="15.944"/><feComposite in2="SourceAlpha" operator="in" result="effect1_backgroundBlur_415_11747"/><feBlend in="SourceGraphic" in2="effect1_backgroundBlur_415_11747" result="shape"/></filter><linearGradient id="b" x1="141.949" x2="363.282" y1="-81.593" y2="699.638" gradientUnits="userSpaceOnUse"><stop offset=".417"/><stop offset=".881" stop-opacity=".02"/></linearGradient><linearGradient id="q" x1="144.529" x2="169.558" y1="440.397" y2="474.388" gradientUnits="userSpaceOnUse"><stop stop-color="#fff" stop-opacity="0"/><stop offset="1" stop-color="#fff"/></linearGradient><linearGradient id="r" x1="171.81" x2="176.958" y1="432.516" y2="467.836" gradientUnits="userSpaceOnUse"><stop offset="0" stop-color="#fff"/></linearGradient><clipPath id="e"><path fill="#fff" d="M95.056 582.407h54.395v54.395H95.056z"/></clipPath><clipPath id="l"><path fill="#fff" d="m370.055 226.116 60.023.115-.115 60.023-60.023-.115z"/></clipPath><clipPath id="o"><path fill="#fff" d="M294.818 452.982h54.549v54.549h-54.549z"/></clipPath><radialGradient id="a" cx="0" cy="0" r="1" gradientTransform="rotate(90 -.469 332.469) scale(349.759)" gradientUnits="userSpaceOnUse"><stop stop-color="#fff"/><stop offset="1" stop-color="#fff" stop-opacity="0"/></radialGradient></defs></svg>